<?xml version="1.0" standalone="no"?>
<!DOCTYPE svg PUBLIC "-//W3C//DTD SVG 20010904//EN"
 "http://www.w3.org/TR/2001/REC-SVG-20010904/DTD/svg10.dtd">
<svg version="1.0" xmlns="http://www.w3.org/2000/svg"
 width="1004.000000pt" height="853.000000pt" viewBox="0 0 1004.000000 853.000000"
 preserveAspectRatio="xMidYMid meet">
<metadata>
Created by potrace 1.16, written by Peter Selinger 2001-2019
</metadata>
<g transform="translate(0.000000,853.000000) scale(0.100000,-0.100000)"
fill="#000000" stroke="none">
<path d="M2383 7412 l-2293 -1047 0 -482 0 -483 400 0 400 0 0 -234 0 -234
190 -7 190 -8 0 -1418 0 -1419 -190 0 -190 0 0 -235 0 -235 -395 0 -395 0 0
-500 0 -500 4595 0 4595 0 0 500 0 500 -450 0 -450 0 0 235 0 235 -185 0 -185
0 0 1420 0 1420 58 0 c31 0 114 3 185 7 l127 6 0 234 0 233 445 0 445 0 0 480
c0 428 -2 480 -16 480 -8 0 -13 3 -11 8 5 6 -4536 2084 -4565 2089 -7 1 -1045
-469 -2305 -1045z m457 -2246 l0 -234 185 -7 185 -7 0 -1419 0 -1419 -185 0
-185 0 0 -235 0 -235 -140 0 -140 0 0 235 0 235 -190 0 -190 0 0 1419 0 1418
190 8 190 7 0 234 0 234 140 0 140 0 0 -234z m1950 1 l0 -234 128 -6 c70 -4
153 -7 185 -7 l57 0 0 -1420 0 -1420 -185 0 -185 0 0 -235 0 -235 -140 0 -140
0 0 235 0 235 -190 0 -190 0 0 1419 0 1418 190 8 190 7 0 234 0 234 140 0 140
0 0 -233z m1940 -1 l0 -234 185 -7 185 -7 0 -1419 0 -1419 -185 0 -185 0 0
-235 0 -235 -140 0 -140 0 0 235 0 235 -185 0 -185 0 0 1419 0 1419 185 7 185
7 0 234 0 234 140 0 140 0 0 -234z"/>
<path d="M5640 435 l0 -65 1715 0 1715 0 0 65 0 65 -1715 0 -1715 0 0 -65z"/>
<path d="M6510 170 l0 -70 1715 0 1715 0 0 70 0 70 -1715 0 -1715 0 0 -70z"/>
</g>
</svg>
