<svg xmlns="http://www.w3.org/2000/svg" height="2667" width="4667" version="1"><path d="M4667 2667H0V0h4667v2667" fill="#fff"/><path d="M2121 903l-19 5-12-29-29 5-13-20-10 7 17 27 27-5 13 30 28-8-2-12M3319 1948l-18 5-13-29-28 5-13-20-10 7 17 27 27-5 13 30 28-8-3-12M2006 2292s-100-338-108-413c-8-74 48-51 48-51s-47-142-13-176 64 29 64 29 10-173 47-173c67 0 66 189 66 189s17-74 53-54c54 30-24 178-24 178s70 0 94 35c44 63-227 436-227 436" fill="#50bfa5"/><path d="M2038 2247s-287-48-350-99c-62-51 0-74 0-74s-145-74-143-124c1-51 73-25 73-25s-122-139-93-165c54-49 195 95 195 95s-42-69 2-80c66-16 115 153 115 153s-12-67 33-58c83 16 168 377 168 377" fill="#50bfa5"/><path d="M1870 1870c-45-8-33 58-33 58s-49-169-115-153c-44 11-2 80-2 80s-141-144-195-95l512 487c-9-47-90-363-167-377" fill="#3c8f7c"/><path d="M2120 2287s-151-154-228-170c-76-16-62 38-62 38s-151-133-187-100c-35 32 3 63 3 63s-126-23-144 19c-27 63 180 98 180 98s-87 6-67 46c30 60 505 6 505 6" fill="#355389"/><path d="M1502 2137c18-42 144-19 144-19s-38-31-3-63c36-33 182 82 182 82s-34-66 42-50 253 200 253 200l-618-150" fill="#466eb6"/><path d="M2361 699c-51 8-66 75-24 105 8 5 13 13 15 22l8 31c2 9 11 14 19 13l20-3c8-2 15-9 14-18-3-32-6-44 4-58 31-42-5-101-56-92" fill="#f7cc7f"/><path d="M2390 743c-2 4-1 9-1 14 5-2 9-5 11-10 1-3 0-7-3-8-1 0-6 2-7 4zm-47 20c2 3 7 4 13 4-1-5-3-9-6-12-7-7-12 4-7 8zm23 72l-9-65c-30 1-18-29-5-17 4 4 6 8 7 14 10-1 19-4 28-8v-17c3-6 12-8 15-2 1 3 2 6 1 8-2 6-8 9-13 12l6 66h-3l-6-64c-9 4-18 7-28 8 2 10 7 38 10 64l-3 1" fill="#fae0b2"/><path d="M2352 825v1l8 31c2 9 11 14 19 13l20-3c8-2 15-10 14-18l-3-33-58 9" fill="#96d9c9"/><path d="M2323 675l-15-28a6 6 0 0 1 10-5l15 28a6 6 0 0 1-10 5M2290 743l-33-3c-3-1-6-3-5-6 0-3 3-6 6-5l33 3a6 6 0 0 1-1 11M2257 844c-2-2-2-5 0-7 8-8 17-16 27-22a6 6 0 0 1 6 9l-25 20c-2 3-6 3-8 0M2405 674c-3-1-4-4-4-7 4-14 6-29 7-43a6 6 0 0 1 11 0c0 16-3 31-7 46-1 3-4 5-7 4M2440 717c-1-3 0-7 3-7l35-11a6 6 0 0 1 3 11l-35 10c-2 1-6-1-6-3M2496 808h-1c-12-3-24-8-35-14a6 6 0 0 1 5-9l33 12a6 6 0 0 1-2 11" fill="#fae0b2"/><path d="M3002 1054l-17-41-44-9c-5-1-7-7-3-11l34-29-5-45c-1-5 5-8 9-5l39 23 40-19c5-2 10 2 9 7l-10 44 30 33c3 4 1 10-4 10l-45 4-22 39c-2 4-9 4-11-1" fill="#f7cc7f"/><path d="M3280 913l-8 29-47-7-16 41-36 1v19l49-2 15-39 49 7 11-43-17-6" fill="#f48c7f"/><path d="M2855 2295h-839c-32 0-57-26-57-60v-35c0-34 25-61 57-61h839c-39 44-39 110-2 155l2 1" fill="#b75742"/><path d="M2842 2157h-465c-32 0-58 27-58 60 0 34 26 61 58 61h465c-22-37-22-84 0-121" fill="#fae0b2"/><path d="M2560 2031c1-2 0-5-3-5h-444c-35 0-63 26-63 57s28 56 63 56h444c3 0 5-2 3-4-17-33-17-71 0-104" fill="#86b1f2"/><path d="M2557 2037h-219c-41 0-74 21-74 47s33 48 74 48h221c-15-31-16-65-2-95" fill="#f7cc7f"/><path d="M2501 2059h-29c-6 0-11 2-11 5h40v-5" fill="#b75742"/><path d="M2525 2071c0-7-7-12-17-12h-36c7 0 12 4 12 9v124l20-16 21 16v-121" fill="#f47458"/><path d="M2479 2022h-258c-23 0-42-22-42-49s19-49 42-49h258a87 87 0 0 0-2 95l2 3" fill="#fae0b2"/><path d="M2179 1973c0-27 19-49 43-49h262c1 0 2-1 2-3l-2-2h-416c-26 0-47 24-47 54s21 54 47 54h416l2-2c0-2-1-3-2-3h-262c-24 0-43-22-43-49" fill="#466eb6"/><path d="M2434 1948h-29c-6 0-11 2-11 4v1h40v-5" fill="#184655"/><path d="M2458 1959c0-6-7-11-17-11h-36c7 0 12 4 12 9v121l20-15 21 15v-119" fill="#3c8f7c"/><path d="M2890 1196l38-10-26 344-46 2 23-323c1-6 5-11 11-13" fill="#184655"/><path d="M2906 1540h-3c-8-1-13-8-13-17l26-323c0-9 7-15 15-14 7 1 13 8 12 17l-25 324c-1 7-6 13-12 13" fill="#f7cc7f"/><path d="M2555 1558c1 13 11 23 23 22l321-29c12-1 20-12 19-25v-2l-363 34" fill="#f7cc7f"/><path d="M2779 1905c-21 12-86-8-86-10 0 17-72 190-72 190v53s147 7 145-6-10-5-39-29c-3-3-44-12-33-36 23-49 70-131 85-162" fill="#f7a491"/><path d="M2617 2139h160c6 0 7-5 5-8-4-6-35-19-55-29-36 4-100-9-106-18-15 21-8 55-4 55" fill="#3c8f7c"/><path d="M2581 1782c-2-7 139-66 145-60 11 12-76 238-76 238l100 31s104-261 100-309c-5-48-57-102-170-67s-99 167-99 167" fill="#355389"/><path d="M2872 1935c-24-4-54-5-79-6 3 22 17 134 14 141-10 28-33 41-33 41s109 99 116 87c6-11-5-10-12-47-1-3-17-56-18-84-2-54 11-102 12-132" fill="#f7a491"/><path d="M2837 1568c-15-8-55-9-98-6-85 6-168 22-249 49l-54 18 1-55s-172-29-178 13c-9 64 2 194 59 223 178 90 426-143 427-113 2 41 36 194 45 261 25 0 67 0 85-4 4-131 5-363-38-386" fill="#466eb6"/><path d="M2771 2114l122 97c5 4 9 1 9-3 1-7-14-37-24-57-31-20-71-71-70-81-13 11-39 41-37 44" fill="#3c8f7c"/><path d="M2493 1034c-4-38-8-76-39-103a84 84 0 0 0-90-14c-89 33-43 113-158 194-35 25-75 42-102 76-37 47-23 104 11 141 164 182 347-63 360-122 10-44 21-148 18-172" fill="#13375b"/><path d="M2460 1245c-13-24-27-44-27-44-14-25-50-37-50-37l-26 1-2 4c-5 4-35-1-54 12-64 55-47 322-42 406l196 2s-25-181 15-228c28-32 10-79-10-116" fill="#50bfa5"/><path d="M2372 1074s-11 77-18 95c-8 19 41 59 81 71 41 12-12-41-10-61l9-115-62 10" fill="#f7a491"/><path d="M2432 1091l2-27-62 10-3 22c25 14 47 10 63-5" fill="#f47458"/><path d="M2391 934s-24 5-39 28-26 91 24 122c50 32 88-13 89-56 1-44-9-102-74-94" fill="#f7a491"/><path d="M2476 1014c-4 11-12 17-19 15-6-3-7-13-3-24 4-10 13-17 19-14 6 2 7 13 3 23" fill="#f7a491"/><path d="M2399 932s-32 70-59 76-27 42-27 42 1-82 26-100c26-19 60-18 60-18" fill="#13375b"/><path d="M2351 1023c4 11 0 22-7 25-8 2-17-5-21-16-3-12 0-23 8-25 7-3 16 4 20 16M2701 1527c-12-5-30-5-29-7 1-6 53 14 46 5-4-5-43-23-52-20l-70 20-164-39s-41-94-45-175c-34 5-58 13-87 30 14 77 49 203 87 226 17 10 210-12 210-12s43-3 50-5c5-3 19-10 26-12 17-5 47 7 47 4s-7-11-19-15" fill="#f7a491"/><path d="M2388 1225c-2-25-11-49-38-57-16-5-34 0-48 11-15 12-20 33-19 52 0 44 3 90 11 133 29-17 64-27 98-31l-4-108" fill="#96d9c9"/><path d="M1879 1272l-254-48c-5-1-9-6-8-11l32-171c1-5 6-8 11-7l255 47c5 1 8 6 7 11l-32 171c-1 5-6 9-11 8" fill="#f7cc7f"/><path d="M1758 1076l-77-14c-5-1-9-6-8-11l5-26c1-6 6-9 11-8l77 14c6 1 9 6 8 11l-5 26c-1 6-6 9-11 8" fill="#f7cc7f"/><path d="M1891 1265c-1 5-6 8-11 7l-256-48c-5-1-8-5-8-10l14-153c0-3 1-5 3-7s5-2 8-2l284 53a9 9 0 0 1 8 12l-42 148" fill="#fae0b2"/><path d="M3058 704l-44 12-9-52 14-3 7 37 28-7 4 13" fill="#50bfa5"/><path d="M1670 1430c11-1 27 4 35 9 1 1 10 4 19 19l-2 1c-10-9-16-12-24-14-12-3-25-1-26 0l-2-15" fill="#355389"/><path d="M1723 1459s-67 11-61 63c7 52 77 92 139 60 85-43 51-153-9-162-60-8-69 39-69 39" fill="#f47458"/><path d="M1751 1436s17-18 55-2c38 17 41 92 7 88-34-5-89-75-62-86" fill="#f48c7f"/><path d="M2208 746l-273 97c-9 4-19-1-22-10l-50-141c-3-9 1-19 10-22l273-98c9-3 19 2 22 11l51 141c3 9-2 19-11 22" fill="#86b1f2"/><path d="M2027 709a54 54 0 1 1-102 37 54 54 0 0 1 102-37" fill="#fff"/><path d="M1984 702a16 16 0 1 1-30 11 16 16 0 0 1 30-11M2010 746l-48 18-2-6c-4-10 1-20 11-24l13-4c10-4 20 1 24 11l2 5" fill="#86b1f2"/><path d="M2034 680c-3 0-6-2-7-5s1-7 4-9l120-42 2-1a7 7 0 0 1 3 14l-120 42-2 1M2066 710c-3 0-5-2-6-5-2-3 0-7 4-9l93-33a7 7 0 0 1 5 13l-94 33-2 1" fill="#fff"/><path d="M2633 1813h-660c-21 0-37 17-37 37v32c0 20 16 37 37 37h660v-1a76 76 0 0 1 0-105" fill="#f47458"/><path d="M2621 1829h-353a37 37 0 0 0 0 74h353a76 76 0 0 1 0-74M3174 1816l-50-125c-3-7 0-14 6-16l181-72c6-3 13 0 16 7l50 125c2 7-1 14-7 16l-180 72c-7 3-14 0-16-7" fill="#fae0b2"/><path d="M3344 1744l-45-113c-1-2 0-4 2-5 1-1 3 0 4 2l45 113c1 2 0 4-2 5l-4-2M3322 1729l-37-93c-1-2 0-4 2-5l5 2 37 93c0 2 0 4-2 5-2 0-4 0-5-2M3317 1754l-45-113c-1-1 0-3 2-4s4 0 4 2l45 113c1 1 0 4-2 4-1 1-4 0-4-2M3293 1734l-35-87 2-5c2-1 4 0 5 2l35 87c0 2 0 4-2 5s-4 0-5-2" fill="#466eb6"/><path d="M3342 1619l-1-3-2-1-17 7-1 2 1 3 2 1 17-7c1-1 2-1 1-2M3346 1628l-1-2-2-1-17 7-1 2 1 2 2 1 17-6c1-1 2-2 1-3M3350 1638l-1-2-2-1-17 7-1 2 1 2 2 1 17-7 1-2M3354 1648l-1-2c0-1-1-2-2-1l-17 6-1 3 1 2 2 1 17-7 1-2M3358 1658l-1-3-2-1-17 7-1 2 1 3h2l17-6 1-2M3362 1667l-1-2-2-1-17 7-1 2 1 2c0 1 1 2 2 1l17-7 1-2M3366 1677l-1-2-2-1-17 7c-1 0-2 1-1 2l1 2 2 1 17-7 1-2M3369 1687v-3h-2l-18 6v5l3 1 17-7v-2M3373 1696l-1-2-2-1-17 7-1 2 1 2 2 1 18-6v-3M3377 1706l-1-2-2-1-17 7-1 2 1 2 2 1 17-7c1 0 2-1 1-2M3381 1716l-1-2c0-1-1-2-2-1l-17 7-1 2 1 2 2 1 17-7 1-2M3385 1726l-1-3-2-1-17 7-1 2 1 3 2 1 17-7 1-2" fill="#355389"/><path d="M3432 1716l-71 101-1 1-7 23c-1 2 2 4 4 3l19-15h1l72-102c1-2 0-4-1-4l-12-8c-1-1-3-1-4 1" fill="#b75742"/><path d="M3377 1829l-19 14-5-4 7-21c6 3 12 6 17 11" fill="#f7cc7f"/><path d="M2708 614c10 8 28 34 51 53 13 11 24 8 41 10 81 10 59 26 68 28l-32 71c-5 10-12 14-23 13-17-3-34-4-50-8-42-9-66-30-96-56-8-7-10-15-6-25 19-45 45-82 47-86" fill="#466eb6"/><path d="M2877 769c0 18 1 22-6 19l-14-6c-3-2-3-4 0-6l10-11c-2-7 1-15 7-19 2 0 1 1 12-25l-109-13c-12-1-23-6-32-14l-98-81c-4-4-5-10-1-14 2-3 6-3 10-3l122 16c14 1 26 6 36 15l96 80c4 4 6 7 4 11-2 5-5 7-11 6-4-1-6 0-7 4-6 16-11 20-9 26 1 5-5 13-10 15" fill="#86b1f2"/><path d="M3046 1967l18 18c44 42 80 91 106 146l3 6s48 4 55-40c-43-48-78-99-106-156l-9-21-67 47" fill="#466eb6"/><path d="M3113 1920c2 4-11 17-29 30-19 13-36 20-38 17-3-3 11-17 29-30 18-12 35-20 38-17" fill="#86b1f2"/><path d="M3113 1920s-37 32-52 35l4 6 19-11c18-13 31-26 29-30" fill="#355389"/><path d="M3162 2011c0 6-2 29-41 39l8 10c24-7 35-20 40-29l3-5-10-15" fill="#b75742"/><path d="M3125 2043l-57-2 13 11-8 15 54-14-2-10M3130 2056l-20 35 14-5 6 11 9-37-9-4" fill="#b75742"/><path d="M3138 2066c-10 0-19-8-20-18 0-10 7-19 17-20 10 0 19 7 20 18 0 10-7 19-17 20" fill="#f47458"/><path d="M3259 1265l-120-107c-8-7-5-21 6-27l96-54c6-4 13-3 17 0l120 108c8 7 5 21-6 27l-96 54c-6 4-13 3-17-1" fill="#9bc1f9"/><path d="M3253 1180l-10-82c0-3 2-7 5-8s6 1 7 4l9 76 91 22c3 1 4 4 3 7s-5 5-8 5l-97-24" fill="#fff"/><path d="M1227 2294c-6 0-11 6-11 14 0 7 5 13 13 4h2363c3 0 6-4 6-9 0-4-3-9-6-9H1227" fill="#184655"/><path d="M1686 803l12 25 28-1 12 28 30-10 15 32 28-6 20 28-11 7-14-21-30 7-15-31-30 11-13-32-27 1-12-23-18 5-3-13 28-7" fill="#f7cc7f"/><path d="M3187 1431l25 10 21-19 28 14 15-27 32 14 18-23 33 8-4 13-24-7-19 25-30-14-16 28-31-15-20 18-24-9-10 15-11-8 17-23" fill="#50bfa5"/></svg>