<svg id="svg" version="1.1" xmlns="http://www.w3.org/2000/svg" xmlns:xlink="http://www.w3.org/1999/xlink" width="400" height="343.31983805668017" viewBox="0, 0, 400,343.31983805668017"><g id="svgg"><path id="path0" d="M198.798 23.025 C 198.798 24.096,196.384 24.383,195.301 23.441 C 194.528 22.769,193.991 23.161,193.991 24.398 C 193.991 25.485,192.847 25.843,192.019 25.015 C 191.804 24.799,191.133 24.584,190.530 24.536 C 189.908 24.487,189.618 24.565,189.860 24.714 C 190.142 24.888,190.166 25.054,189.932 25.199 C 189.736 25.320,189.479 25.263,189.361 25.073 C 189.238 24.873,188.784 25.090,188.286 25.589 C 187.811 26.063,187.291 26.369,187.128 26.268 C 186.674 25.988,185.064 26.832,185.064 27.351 C 185.064 27.613,184.694 27.811,184.206 27.811 C 183.460 27.811,183.348 27.963,183.348 28.971 C 183.348 30.561,182.597 31.153,181.363 30.534 C 180.850 30.276,180.313 30.008,180.172 29.939 C 180.030 29.870,179.914 30.123,179.914 30.501 C 179.914 32.242,178.981 32.768,177.662 31.771 C 176.634 30.993,175.680 31.077,176.124 31.906 C 176.925 33.403,175.643 34.157,174.116 33.087 C 173.238 32.472,172.720 32.841,172.709 34.088 C 172.703 34.844,171.765 35.250,171.239 34.724 C 170.323 33.808,167.098 34.514,167.445 35.553 C 167.510 35.748,167.136 35.901,166.614 35.894 C 165.762 35.881,165.648 36.019,165.494 37.253 C 165.313 38.695,164.353 39.051,162.661 38.304 C 162.179 38.091,162.060 38.206,162.060 38.891 C 162.060 40.602,159.347 40.756,159.302 39.048 C 159.296 38.805,159.093 38.888,158.824 39.243 C 158.566 39.583,158.428 40.134,158.515 40.469 C 158.778 41.476,157.759 42.074,156.823 41.461 C 156.396 41.181,155.400 40.973,154.609 41.000 C 152.924 41.056,152.165 41.545,153.763 41.545 C 154.641 41.545,154.850 41.685,154.850 42.272 C 154.850 42.894,154.714 42.964,153.906 42.758 C 153.004 42.529,151.312 42.465,150.220 42.618 C 149.939 42.657,149.620 42.973,149.510 43.319 C 149.381 43.725,148.980 43.948,148.380 43.948 C 147.503 43.948,147.457 44.027,147.579 45.307 C 147.733 46.918,146.448 47.621,145.281 46.564 C 144.364 45.734,144.027 45.885,144.031 47.124 C 144.035 48.515,142.905 48.828,141.816 47.739 C 141.055 46.978,140.899 47.121,140.704 48.755 C 140.578 49.804,139.400 50.080,138.575 49.255 C 137.773 48.453,136.996 48.878,136.996 50.118 C 136.996 51.172,135.959 51.638,135.449 50.813 C 135.004 50.092,132.152 50.524,131.834 51.361 C 131.670 51.791,131.187 52.186,130.748 52.248 C 130.154 52.333,129.930 52.616,129.850 53.391 C 129.682 55.003,128.877 55.410,127.519 54.571 L 126.395 53.876 126.288 55.176 C 126.156 56.765,125.421 57.014,123.950 55.967 L 122.918 55.232 122.918 56.468 C 122.918 57.936,122.245 58.338,121.073 57.570 C 120.226 57.015,118.112 56.887,118.112 57.391 C 118.112 57.551,118.406 57.682,118.766 57.682 C 119.257 57.682,119.375 57.858,119.236 58.387 C 118.959 59.448,117.558 59.160,117.710 58.074 C 117.784 57.553,117.690 57.347,117.447 57.497 C 117.240 57.625,117.159 57.874,117.268 58.049 C 117.377 58.225,117.263 58.380,117.016 58.393 C 115.407 58.477,114.546 58.760,114.009 59.379 C 113.672 59.768,112.951 60.098,112.406 60.113 C 111.862 60.128,111.584 60.210,111.790 60.295 C 112.019 60.390,112.084 60.942,111.957 61.727 C 111.701 63.309,110.574 63.634,109.346 62.479 L 108.544 61.726 108.435 63.052 C 108.307 64.609,107.258 65.026,106.180 63.948 C 105.408 63.176,104.831 63.622,105.007 64.854 C 105.153 65.873,104.467 66.338,103.546 65.845 C 102.445 65.256,100.436 64.865,100.902 65.331 C 101.746 66.176,101.370 67.396,100.343 67.144 C 97.894 66.541,96.137 66.871,96.137 67.936 C 96.137 68.125,95.712 68.329,95.193 68.389 C 94.529 68.466,94.239 68.702,94.214 69.185 C 94.133 70.770,94.050 71.010,93.514 71.216 C 93.204 71.335,92.591 71.197,92.153 70.909 C 90.985 70.144,90.644 70.261,90.644 71.427 C 90.644 72.787,89.916 73.033,88.493 72.153 L 87.354 71.449 87.271 72.543 C 87.155 74.053,86.737 74.374,85.589 73.832 C 84.496 73.316,82.747 73.116,82.747 73.506 C 82.747 73.651,82.960 73.819,83.220 73.880 C 83.562 73.961,83.611 74.208,83.397 74.779 C 83.145 75.449,82.995 75.510,82.393 75.187 C 81.547 74.735,78.620 74.992,78.275 75.549 C 78.142 75.765,77.664 76.128,77.214 76.355 C 76.643 76.642,76.428 77.003,76.506 77.546 C 76.743 79.215,74.834 79.937,73.648 78.627 C 73.306 78.249,72.857 77.942,72.651 77.945 C 72.414 77.948,72.430 78.049,72.694 78.217 C 73.175 78.522,72.948 80.377,72.387 80.723 C 71.833 81.066,70.760 80.674,70.247 79.942 C 69.716 79.184,69.356 79.695,69.356 81.210 C 69.356 81.655,69.213 82.108,69.039 82.216 C 68.670 82.443,66.953 81.731,66.953 81.350 C 66.953 81.210,66.677 81.166,66.340 81.255 C 65.939 81.359,65.731 81.734,65.739 82.338 C 65.748 83.039,65.565 83.288,64.979 83.372 C 64.554 83.432,64.206 83.320,64.206 83.124 C 64.206 82.917,63.661 82.818,62.918 82.890 C 61.219 83.053,60.429 83.400,60.429 83.985 C 60.429 84.308,60.016 84.464,59.159 84.464 C 58.171 84.464,57.980 84.555,58.300 84.876 C 58.527 85.102,58.712 85.612,58.712 86.009 C 58.712 87.415,57.170 88.076,56.309 87.039 C 55.828 86.459,54.772 86.324,55.119 86.886 C 55.995 88.304,54.115 89.534,52.838 88.378 C 52.045 87.661,51.502 88.032,51.502 89.291 C 51.502 90.387,50.956 90.584,49.731 89.928 C 48.769 89.413,47.099 89.238,46.859 89.627 C 46.749 89.804,46.879 89.865,47.147 89.762 C 47.456 89.644,47.711 89.864,47.841 90.361 C 48.112 91.397,47.632 91.832,46.743 91.356 C 45.372 90.622,42.575 91.189,42.575 92.201 C 42.575 92.505,42.244 92.704,41.737 92.704 C 41.017 92.704,40.885 92.885,40.793 93.991 C 40.669 95.492,39.473 95.908,38.019 94.956 C 37.218 94.431,37.203 94.440,37.342 95.384 C 37.547 96.779,36.730 97.371,35.468 96.743 C 34.939 96.479,34.543 96.086,34.588 95.869 C 34.633 95.653,34.449 95.560,34.178 95.664 C 33.906 95.768,33.639 96.416,33.581 97.111 C 33.474 98.393,32.193 98.833,31.559 97.806 C 31.225 97.267,26.785 97.636,26.415 98.234 C 26.229 98.536,26.364 98.955,26.797 99.416 C 27.658 100.333,27.652 101.648,26.781 102.755 C 26.116 103.600,26.095 104.126,26.122 119.367 C 26.136 128.024,26.227 134.914,26.322 134.678 C 26.507 134.219,53.029 134.022,55.236 134.464 C 56.477 134.712,56.661 135.617,55.754 137.005 C 55.449 137.472,55.847 137.197,56.638 136.395 C 58.676 134.329,62.085 134.226,63.125 136.201 C 63.611 137.125,63.664 150.654,63.184 151.416 C 62.941 151.802,61.939 151.974,59.183 152.103 C 54.007 152.345,54.224 152.961,59.485 152.961 C 63.585 152.961,63.694 152.981,63.801 153.734 C 63.863 154.172,64.160 154.517,64.487 154.531 C 64.953 154.550,64.932 154.611,64.378 154.850 C 63.898 155.056,64.377 155.152,65.967 155.169 C 67.624 155.187,68.362 155.049,68.683 154.662 C 68.926 154.369,69.447 154.176,69.841 154.232 L 70.558 154.335 70.645 205.644 C 70.733 257.683,70.737 257.483,69.610 257.505 C 69.467 257.508,69.085 257.202,68.762 256.824 C 68.267 256.247,67.749 256.137,65.503 256.137 L 62.833 256.137 63.574 256.879 L 64.316 257.621 63.536 258.253 C 62.409 259.165,56.178 259.189,55.650 258.283 C 55.362 257.789,55.298 257.777,55.289 258.215 C 55.268 259.310,56.060 259.571,59.399 259.571 C 63.791 259.571,63.518 259.038,63.525 267.622 C 63.527 271.597,63.676 275.082,63.855 275.365 C 64.139 275.814,67.563 275.892,90.653 275.972 C 115.087 276.057,117.195 276.110,118.032 276.659 C 118.781 277.150,119.761 277.253,123.665 277.253 C 130.368 277.253,129.927 277.916,130.066 267.631 L 130.174 259.571 132.527 259.571 C 136.253 259.571,135.966 258.912,135.966 267.451 C 135.966 274.246,136.022 274.966,136.594 275.483 C 137.166 276.002,139.537 276.052,163.605 276.052 C 188.251 276.052,190.033 276.091,190.652 276.652 C 191.192 277.142,192.085 277.271,195.486 277.349 C 202.166 277.501,202.168 277.499,202.206 266.867 L 202.232 259.571 204.738 259.571 C 208.217 259.571,208.069 259.217,208.069 267.512 L 208.069 274.628 208.973 275.340 C 209.870 276.045,210.107 276.052,235.497 276.063 C 259.932 276.073,261.203 276.105,263.004 276.738 C 264.925 277.414,270.093 277.625,272.446 277.125 C 273.650 276.869,273.950 275.886,273.141 274.847 C 272.627 274.187,272.612 274.198,272.699 275.164 C 272.881 277.170,265.387 277.491,263.376 275.564 L 262.330 274.562 262.238 266.981 L 262.146 259.399 259.227 259.220 C 255.536 258.993,254.015 257.694,256.052 256.508 C 256.495 256.250,255.912 256.155,253.820 256.148 L 250.987 256.137 250.987 205.665 L 250.987 155.193 253.020 155.193 C 254.989 155.193,255.060 155.161,255.274 154.187 C 255.600 152.699,256.138 152.429,259.287 152.168 L 262.146 151.931 262.318 144.206 C 262.543 134.065,262.585 134.005,269.253 134.326 C 273.107 134.511,273.658 134.793,272.946 136.214 C 272.114 137.875,272.149 137.884,273.627 136.395 C 275.259 134.749,278.422 134.265,279.632 135.475 C 280.099 135.942,280.533 151.576,280.086 151.803 C 280.039 151.827,278.313 151.943,276.250 152.061 C 273.625 152.211,272.475 152.406,272.414 152.712 C 272.366 152.953,272.391 153.030,272.471 152.884 C 272.621 152.610,278.741 152.674,280.045 152.963 C 280.839 153.139,281.368 154.716,280.723 154.982 C 280.514 155.068,281.463 155.151,282.830 155.166 L 285.317 155.193 285.405 205.751 L 285.494 256.309 282.575 256.218 C 280.394 256.150,279.809 256.219,280.258 256.492 C 281.056 256.979,281.022 258.086,280.194 258.529 C 278.996 259.170,272.618 258.987,272.618 258.312 C 272.618 257.997,272.527 257.831,272.415 257.943 C 271.426 258.932,272.719 259.492,276.119 259.546 C 278.032 259.576,279.727 259.680,279.885 259.777 C 280.043 259.875,280.172 263.233,280.172 267.240 C 280.172 273.278,280.263 274.656,280.706 275.288 L 281.241 276.052 307.671 276.052 C 332.265 276.052,334.165 276.093,335.018 276.652 C 335.846 277.196,337.435 277.270,351.572 277.425 L 367.210 277.597 367.313 279.186 C 367.385 280.301,367.250 280.941,366.860 281.332 C 366.201 281.991,30.087 282.212,28.859 281.554 C 28.173 281.187,27.654 279.147,27.983 278.111 C 28.183 277.480,28.748 277.450,42.026 277.354 C 57.673 277.240,58.325 277.129,56.223 274.943 C 55.798 274.501,55.567 274.292,55.708 274.477 C 57.323 276.597,56.384 276.738,40.689 276.738 L 27.558 276.738 27.357 277.976 C 27.246 278.656,27.241 279.639,27.345 280.160 C 27.538 281.122,26.627 283.419,26.166 283.134 C 26.032 283.051,25.966 289.806,26.018 298.144 C 26.074 307.032,26.238 313.105,26.415 312.822 C 26.674 312.407,47.686 312.367,174.302 312.538 C 255.475 312.648,332.163 312.634,344.721 312.506 L 367.554 312.275 367.734 297.167 C 367.858 286.813,368.043 281.696,368.323 280.903 C 368.636 280.015,368.637 279.397,368.329 278.242 L 367.926 276.738 352.741 276.738 C 335.943 276.738,334.105 276.507,336.316 274.673 C 336.758 274.305,336.823 273.116,336.745 266.819 L 336.652 259.399 332.704 259.227 C 327.982 259.022,326.649 258.210,328.309 256.549 C 329.243 255.616,324.158 256.044,323.029 256.994 C 322.219 257.676,321.875 257.779,321.349 257.497 C 320.527 257.058,320.281 155.050,321.099 154.232 C 321.708 153.622,322.559 153.730,323.262 154.506 C 324.409 155.774,327.458 155.487,327.823 154.077 C 328.250 152.428,329.240 152.075,333.130 152.182 C 337.190 152.294,336.824 153.049,336.824 144.568 C 336.824 138.215,336.778 137.716,336.112 136.870 C 335.225 135.742,335.365 134.867,336.482 134.556 C 338.094 134.107,368.232 134.206,368.687 134.661 C 369.007 134.981,369.099 131.056,369.099 116.999 C 369.099 105.126,368.979 98.851,368.750 98.709 C 368.558 98.590,368.490 98.349,368.598 98.174 C 368.707 97.998,368.748 97.846,368.690 97.837 C 366.001 97.397,364.267 97.509,363.359 98.180 C 361.921 99.243,361.102 98.828,361.265 97.119 C 361.389 95.825,361.365 95.794,360.267 95.794 C 359.555 95.794,359.142 95.625,359.142 95.334 C 359.142 94.831,357.740 94.077,356.805 94.077 C 356.481 94.077,356.020 93.763,355.780 93.378 C 355.540 92.993,355.155 92.703,354.925 92.732 C 353.720 92.885,352.987 92.638,352.788 92.012 C 352.667 91.632,352.409 91.419,352.213 91.540 C 351.985 91.681,352.024 91.869,352.324 92.067 C 352.699 92.314,352.657 92.475,352.110 92.892 C 351.106 93.657,350.388 93.373,350.373 92.207 C 350.357 91.003,349.720 90.706,348.847 91.497 C 347.902 92.352,347.018 92.028,346.752 90.728 C 346.611 90.039,346.661 89.614,346.882 89.614 C 347.078 89.614,347.145 89.520,347.030 89.405 C 346.915 89.290,346.347 89.532,345.769 89.944 C 344.336 90.965,343.561 90.750,343.348 89.276 C 343.240 88.530,342.910 87.955,342.463 87.732 C 342.070 87.537,341.480 87.108,341.150 86.779 C 340.821 86.450,340.083 86.180,339.510 86.180 C 338.806 86.180,338.248 85.900,337.789 85.317 C 337.245 84.626,336.872 84.480,335.917 84.585 C 335.132 84.672,334.776 84.585,334.873 84.331 C 334.955 84.118,334.792 83.730,334.511 83.468 C 334.065 83.051,334.031 83.127,334.238 84.071 C 334.454 85.054,334.399 85.150,333.626 85.150 C 332.742 85.150,332.252 84.459,332.563 83.649 C 332.777 83.091,331.793 82.619,331.478 83.129 C 330.724 84.349,328.927 83.970,328.927 82.590 C 328.927 81.516,328.564 81.285,327.867 81.915 C 326.786 82.894,325.681 82.419,325.557 80.923 C 325.461 79.754,325.359 79.625,324.602 79.721 C 323.981 79.800,323.641 79.599,323.326 78.970 C 323.053 78.423,322.590 78.099,322.050 78.078 C 319.869 77.990,319.500 77.920,319.896 77.668 C 320.566 77.242,319.840 76.501,318.663 76.408 C 318.068 76.362,317.496 76.237,317.389 76.130 C 317.283 76.024,316.890 76.243,316.516 76.617 C 315.648 77.485,315.018 77.267,315.035 76.104 C 315.052 74.957,314.026 74.557,313.134 75.364 C 312.074 76.323,311.238 75.892,311.284 74.409 C 311.330 72.920,311.315 72.914,310.008 73.845 C 308.496 74.922,307.811 74.617,307.811 72.868 C 307.811 71.519,307.745 71.415,306.884 71.416 C 306.374 71.416,305.833 71.207,305.682 70.951 C 305.291 70.289,304.052 69.700,303.050 69.700 C 302.512 69.700,302.116 69.459,301.987 69.053 C 301.754 68.318,299.243 68.086,298.470 68.728 C 297.797 69.287,296.996 68.788,296.996 67.811 C 296.996 66.720,296.172 66.354,295.417 67.109 C 294.488 68.038,293.409 67.655,293.283 66.352 C 293.165 65.124,292.847 64.957,292.174 65.768 C 291.344 66.769,289.956 66.259,289.962 64.954 C 289.966 63.979,289.828 63.785,289.011 63.622 C 288.066 63.433,287.569 62.986,287.559 62.318 C 287.556 62.129,287.322 61.960,287.039 61.941 C 286.755 61.922,286.099 61.884,285.579 61.855 C 284.983 61.822,284.635 61.609,284.635 61.276 C 284.635 60.679,283.193 60.012,282.898 60.473 C 282.792 60.638,282.377 60.467,281.975 60.093 C 281.246 59.414,281.243 59.414,281.028 60.092 C 280.727 61.041,279.142 61.035,279.142 60.086 C 279.142 59.708,279.305 59.399,279.505 59.399 C 279.705 59.399,279.782 59.258,279.675 59.085 C 279.568 58.912,279.675 58.701,279.912 58.615 C 280.149 58.529,279.875 58.490,279.302 58.529 C 278.729 58.568,277.822 58.887,277.286 59.238 C 276.182 59.961,275.155 59.220,275.488 57.940 C 275.727 57.020,275.116 56.881,274.274 57.665 C 273.410 58.471,272.929 58.543,272.343 57.957 C 271.802 57.415,271.813 55.727,272.361 55.506 C 272.597 55.411,272.221 55.321,271.525 55.306 C 270.595 55.286,270.206 55.105,270.052 54.620 C 269.911 54.178,269.393 53.885,268.479 53.731 C 267.659 53.592,266.976 53.239,266.765 52.845 C 266.372 52.112,263.819 51.912,262.674 52.525 C 261.863 52.959,261.141 52.161,261.454 51.175 C 261.726 50.318,260.792 50.220,259.763 50.998 C 259.396 51.275,258.817 51.502,258.475 51.502 C 257.880 51.502,257.781 51.238,257.738 49.553 C 257.719 48.806,257.717 48.806,256.789 49.467 C 255.186 50.608,254.242 50.191,254.022 48.243 C 253.943 47.544,253.688 47.175,253.222 47.086 C 252.847 47.015,252.333 46.662,252.081 46.302 C 251.829 45.942,251.441 45.669,251.219 45.697 C 250.203 45.822,248.903 45.639,249.056 45.391 C 249.149 45.241,249.095 44.908,248.937 44.651 C 248.621 44.140,245.150 43.859,245.150 44.345 C 245.150 44.813,243.781 44.678,243.736 44.206 C 243.613 42.905,244.015 42.193,244.464 42.918 C 244.632 43.191,244.889 43.294,245.036 43.147 C 245.829 42.354,242.770 42.175,241.906 42.964 C 241.131 43.672,240.000 43.289,239.995 42.318 C 239.990 41.400,239.330 39.883,239.319 40.764 C 239.316 40.995,238.860 41.419,238.305 41.705 C 237.053 42.353,236.122 41.664,236.290 40.214 C 236.378 39.455,236.246 39.296,235.451 39.205 C 234.910 39.142,234.506 38.886,234.506 38.604 C 234.506 38.333,234.275 38.112,233.991 38.112 C 233.708 38.112,233.476 37.939,233.476 37.728 C 233.476 37.511,233.172 37.424,232.777 37.528 C 232.316 37.648,231.785 37.419,231.223 36.857 C 230.341 35.975,227.836 35.456,227.453 36.075 C 227.126 36.604,226.012 36.435,225.776 35.821 C 225.520 35.154,226.276 34.551,226.761 35.036 C 227.201 35.475,228.081 35.459,227.808 35.016 C 227.689 34.824,227.448 34.756,227.272 34.864 C 227.097 34.973,226.953 34.923,226.953 34.754 C 226.953 34.222,224.513 34.322,223.959 34.876 C 223.084 35.751,222.330 35.332,222.211 33.904 L 222.105 32.621 220.768 33.391 C 219.209 34.288,218.598 33.978,218.598 32.291 C 218.598 31.248,217.754 30.604,216.999 31.071 C 216.808 31.189,216.652 31.053,216.652 30.770 C 216.652 30.096,216.278 29.889,214.512 29.587 C 213.706 29.450,213.028 29.148,213.004 28.918 C 212.981 28.687,212.942 28.370,212.918 28.213 C 212.867 27.871,210.319 27.920,209.056 28.288 C 208.228 28.529,208.137 28.453,207.931 27.356 C 207.808 26.698,207.471 26.070,207.183 25.960 C 206.895 25.849,206.740 25.888,206.837 26.047 C 207.097 26.467,205.461 27.251,204.830 27.009 C 204.515 26.888,204.292 26.395,204.292 25.819 C 204.292 24.487,204.018 24.308,203.212 25.114 C 202.167 26.159,201.066 25.825,200.858 24.401 C 200.700 23.311,198.798 22.041,198.798 23.025 M190.215 26.127 C 190.215 26.294,189.828 26.398,189.356 26.359 C 188.444 26.284,188.214 25.907,188.927 25.659 C 189.477 25.467,190.215 25.735,190.215 26.127 M135.075 49.492 C 134.424 50.225,134.425 50.227,135.193 49.823 C 135.618 49.600,135.966 49.269,135.966 49.087 C 135.966 48.599,135.801 48.674,135.075 49.492 M262.527 50.961 C 262.731 51.493,263.691 51.987,263.691 51.560 C 263.691 51.218,262.945 50.472,262.603 50.472 C 262.458 50.472,262.423 50.692,262.527 50.961 M99.568 65.755 C 99.104 66.313,99.468 66.430,100.208 65.960 C 100.491 65.781,100.540 65.582,100.333 65.454 C 100.145 65.338,99.801 65.474,99.568 65.755 M127.699 134.634 C 129.320 135.200,129.442 135.897,129.442 144.565 L 129.442 152.433 130.215 152.610 C 130.639 152.708,132.142 152.827,133.553 152.874 C 136.191 152.964,137.848 154.095,136.550 154.920 C 136.323 155.065,137.412 155.185,138.970 155.188 L 141.803 155.193 141.887 205.751 L 141.972 256.309 142.060 205.922 C 142.137 161.765,142.212 155.460,142.662 154.934 C 144.493 152.798,144.507 152.790,146.352 152.795 C 148.353 152.801,148.729 152.962,149.305 154.055 C 149.994 155.365,149.858 256.789,149.165 257.778 C 148.260 259.070,144.382 258.903,143.599 257.538 C 142.910 256.338,142.076 256.130,138.069 256.159 C 135.945 256.175,135.326 256.269,135.880 256.491 C 136.703 256.822,136.843 257.364,136.320 258.192 C 136.088 258.559,135.105 258.751,132.806 258.879 L 129.614 259.056 129.522 266.985 L 129.430 274.913 128.551 275.740 C 126.264 277.890,117.325 276.632,119.492 274.465 C 119.714 274.243,119.808 271.428,119.749 266.757 L 119.657 259.399 115.765 259.227 C 111.278 259.030,109.607 257.857,111.735 256.400 C 111.937 256.261,110.906 256.145,109.442 256.143 L 106.781 256.137 106.781 205.665 L 106.781 155.193 108.826 155.193 L 110.870 155.193 111.096 153.988 C 111.402 152.359,111.553 152.300,115.880 152.103 L 119.657 151.931 119.750 144.945 C 119.838 138.338,119.803 137.894,119.115 136.781 C 118.306 135.472,118.564 134.756,119.939 134.488 C 121.554 134.174,126.653 134.270,127.699 134.634 M200.194 134.604 C 201.052 135.063,201.042 136.037,200.172 136.824 C 199.399 137.523,199.061 153.092,199.828 152.618 C 200.017 152.501,200.172 152.629,200.172 152.901 C 200.172 153.568,201.450 153.877,201.684 153.267 C 202.101 152.178,209.099 152.738,209.099 153.860 C 209.099 154.215,209.292 154.509,209.528 154.512 C 209.814 154.515,209.785 154.628,209.442 154.850 C 209.083 155.082,209.671 155.184,211.384 155.188 C 213.692 155.193,213.928 155.121,215.279 153.991 C 216.894 152.642,219.945 152.281,221.308 153.277 C 222.186 153.919,222.378 256.919,221.503 257.973 C 220.531 259.145,216.634 258.754,215.177 257.339 L 213.940 256.137 210.575 256.164 C 207.861 256.186,207.397 256.259,208.174 256.543 C 209.398 256.989,209.334 258.229,208.069 258.578 C 206.339 259.057,202.762 258.908,201.927 258.323 C 201.301 257.885,201.069 257.857,200.859 258.196 C 200.707 258.443,200.405 258.513,200.157 258.360 C 199.874 258.185,199.808 258.230,199.967 258.488 C 200.102 258.706,200.049 258.884,199.849 258.884 C 199.214 258.884,199.361 274.147,200.000 274.678 C 200.675 275.238,200.659 276.266,199.972 276.530 C 199.266 276.801,192.837 276.801,192.131 276.530 C 191.441 276.265,191.420 274.721,192.103 274.459 C 192.891 274.156,192.869 259.184,192.078 258.394 C 191.359 257.674,190.831 257.714,190.123 258.541 C 189.376 259.413,185.584 259.514,184.017 258.704 C 182.812 258.081,182.700 257.076,183.777 256.556 C 184.392 256.260,183.866 256.179,181.202 256.161 L 177.854 256.137 177.854 205.665 L 177.854 155.193 180.230 155.193 C 182.561 155.193,182.611 155.174,182.820 154.220 C 183.253 152.248,188.054 151.287,189.965 152.790 C 192.250 154.587,192.560 153.676,192.604 145.023 C 192.638 138.254,192.597 137.748,191.942 136.916 C 191.086 135.827,191.040 134.696,191.845 134.486 C 193.062 134.168,199.551 134.260,200.194 134.604 M134.477 135.300 C 135.937 135.856,135.955 135.959,135.960 143.957 L 135.966 151.433 135.045 151.783 C 134.538 151.976,133.264 152.088,132.212 152.032 L 130.300 151.931 130.208 143.906 C 130.099 134.425,130.428 133.761,134.477 135.300 M207.226 135.778 C 208.069 136.621,208.069 136.622,208.069 144.027 L 208.069 151.433 207.148 151.783 C 206.641 151.976,205.367 152.088,204.315 152.032 L 202.403 151.931 202.311 144.069 C 202.205 135.022,202.229 134.936,204.876 134.936 C 206.018 134.936,206.587 135.140,207.226 135.778 M76.961 153.798 C 77.573 154.554,77.597 156.464,77.597 205.719 L 77.597 256.855 76.737 257.715 C 75.345 259.107,72.089 258.822,71.690 257.274 C 71.309 255.799,71.505 153.777,71.889 153.181 C 72.409 152.374,76.180 152.833,76.961 153.798 M293.406 153.632 L 294.249 154.475 294.249 205.761 L 294.249 257.048 293.435 257.813 C 292.749 258.457,292.302 258.561,290.602 258.473 L 288.584 258.369 288.497 206.045 C 288.433 167.659,288.513 153.597,288.796 153.255 C 289.490 152.419,292.434 152.660,293.406 153.632 M106.054 154.629 C 106.337 154.970,106.417 168.674,106.353 206.045 L 106.266 256.996 105.236 256.996 L 104.206 256.996 104.118 206.009 C 104.069 177.966,104.103 154.828,104.193 154.592 C 104.410 154.022,105.569 154.044,106.054 154.629 M263.004 288.755 C 263.989 289.740,263.946 291.971,262.928 292.684 C 261.916 293.393,136.741 293.514,136.034 292.807 C 135.529 292.301,135.492 289.640,135.978 288.733 C 136.547 287.668,261.940 287.691,263.004 288.755 M295.203 298.217 C 296.249 298.950,296.317 301.934,295.300 302.478 C 294.845 302.722,274.636 302.807,231.523 302.748 L 168.412 302.661 168.308 300.658 C 168.247 299.476,168.370 298.455,168.608 298.168 C 169.250 297.395,294.097 297.443,295.203 298.217 M327.210 307.739 C 328.214 308.244,328.676 311.272,327.832 311.807 C 327.322 312.130,201.898 312.217,201.058 311.895 C 200.301 311.604,200.319 308.769,201.083 307.924 C 201.816 307.115,325.610 306.933,327.210 307.739 M358.995 316.263 C 359.125 316.474,359.202 318.086,359.167 319.846 C 359.109 322.726,359.171 323.081,359.786 323.411 C 360.605 323.849,361.231 323.894,360.556 323.466 C 360.197 323.239,360.097 322.334,360.146 319.738 C 360.199 316.844,360.122 316.278,359.647 316.095 C 358.855 315.791,358.724 315.825,358.995 316.263 M391.783 329.614 C 391.740 332.509,391.831 333.391,392.173 333.391 C 392.511 333.391,392.618 332.480,392.618 329.614 C 392.618 327.027,392.495 325.837,392.229 325.837 C 391.965 325.837,391.821 327.060,391.783 329.614 " stroke="none" fill="#a33c63" fill-rule="evenodd"></path><path id="path1" d="M195.180 21.865 C 194.530 22.514,194.547 22.784,195.279 23.421 C 196.934 24.863,199.559 23.707,198.484 22.010 C 198.062 21.343,195.801 21.244,195.180 21.865 M191.950 23.788 C 191.437 24.610,192.022 25.408,193.138 25.408 C 193.772 25.408,193.942 25.185,194.057 24.206 C 194.219 22.818,192.740 22.524,191.950 23.788 M200.794 24.209 C 200.958 25.616,201.278 25.893,202.413 25.608 C 204.480 25.089,203.958 23.004,201.761 23.004 C 200.696 23.004,200.658 23.051,200.794 24.209 M189.834 24.659 C 189.531 24.788,189.323 25.152,189.371 25.470 C 189.429 25.842,189.290 25.981,188.979 25.862 C 188.714 25.761,188.498 25.815,188.498 25.983 C 188.498 26.151,188.884 26.320,189.356 26.359 C 189.828 26.398,190.215 26.277,190.215 26.091 C 190.215 25.904,190.051 25.751,189.851 25.751 C 189.292 25.751,189.852 25.052,190.679 24.719 C 191.085 24.555,191.185 24.422,190.901 24.424 C 190.618 24.425,190.138 24.531,189.834 24.659 M204.230 25.606 C 204.394 27.016,205.023 27.400,206.167 26.788 C 206.853 26.421,207.225 25.061,206.564 25.334 C 206.434 25.388,206.090 25.195,205.800 24.905 C 204.804 23.909,204.070 24.236,204.230 25.606 M207.852 26.867 C 207.966 27.292,208.061 27.833,208.064 28.069 C 208.070 28.585,208.423 28.607,209.585 28.165 C 210.567 27.792,210.493 27.174,209.386 26.482 C 208.729 26.072,208.678 26.090,208.878 26.661 C 209.087 27.259,209.073 27.261,208.633 26.695 C 207.983 25.861,207.605 25.944,207.852 26.867 M180.451 28.354 C 180.152 28.652,179.996 29.039,180.103 29.212 C 180.210 29.386,179.690 29.528,178.946 29.528 C 177.713 29.528,176.565 30.185,177.015 30.634 C 177.116 30.736,176.494 30.924,175.632 31.054 C 174.769 31.183,174.153 31.433,174.263 31.610 C 174.372 31.787,174.298 31.931,174.098 31.931 C 173.479 31.931,173.697 32.917,174.398 33.293 C 175.849 34.069,176.851 33.265,176.124 31.906 C 175.680 31.077,176.634 30.993,177.662 31.771 C 178.981 32.768,179.914 32.242,179.914 30.501 C 179.914 30.123,180.030 29.870,180.172 29.939 C 180.313 30.008,180.850 30.276,181.363 30.534 C 182.597 31.153,183.348 30.561,183.348 28.971 C 183.348 27.644,181.544 27.260,180.451 28.354 M218.202 31.131 C 218.393 31.288,218.571 31.857,218.597 32.395 C 218.672 33.944,219.219 34.244,220.607 33.497 C 221.265 33.143,221.798 32.762,221.792 32.650 C 221.752 31.909,220.634 31.165,219.340 31.017 C 218.523 30.923,218.011 30.975,218.202 31.131 M171.845 33.255 C 172.003 33.667,171.945 33.672,171.484 33.290 C 170.962 32.857,170.326 33.251,170.306 34.019 C 170.295 34.442,172.037 35.138,172.323 34.826 C 173.051 34.030,173.070 32.659,172.353 32.713 C 171.902 32.747,171.723 32.938,171.845 33.255 M222.212 33.922 C 222.336 35.411,223.027 35.701,224.144 34.732 C 224.828 34.138,224.896 33.036,224.255 32.922 C 222.205 32.559,222.103 32.609,222.212 33.922 M226.038 34.563 C 226.166 34.783,226.106 35.018,225.905 35.085 C 225.331 35.276,225.928 36.395,226.604 36.395 C 226.938 36.395,227.404 36.163,227.639 35.880 C 227.982 35.467,227.979 35.365,227.623 35.365 C 227.378 35.365,226.869 35.094,226.492 34.764 C 226.114 34.433,225.909 34.343,226.038 34.563 M163.328 35.949 C 162.987 36.037,162.575 36.458,162.413 36.884 C 162.179 37.500,161.915 37.628,161.115 37.511 C 159.053 37.208,158.505 39.188,160.373 40.188 C 161.279 40.673,162.060 40.072,162.060 38.891 C 162.060 38.206,162.179 38.091,162.661 38.304 C 164.387 39.066,165.306 38.700,165.514 37.167 C 165.723 35.620,165.366 35.421,163.328 35.949 M156.208 39.639 C 155.653 40.192,155.841 40.817,156.740 41.406 C 157.829 42.120,158.592 41.598,158.551 40.167 C 158.522 39.140,157.044 38.807,156.208 39.639 M236.293 40.144 C 236.175 41.697,237.033 42.363,238.305 41.705 C 238.860 41.419,239.313 41.023,239.313 40.827 C 239.313 38.984,236.431 38.332,236.293 40.144 M239.934 42.054 C 240.076 43.270,241.329 43.824,241.888 42.918 C 242.272 42.297,243.827 42.511,243.759 43.176 C 243.725 43.506,243.716 43.970,243.737 44.206 C 243.785 44.725,245.150 44.788,245.150 44.272 C 245.150 44.072,245.305 44.003,245.494 44.120 C 245.886 44.363,245.938 43.926,245.617 43.089 C 245.454 42.662,245.331 42.626,245.134 42.945 C 244.931 43.273,244.736 43.240,244.298 42.802 C 243.985 42.489,243.421 42.232,243.045 42.232 C 242.670 42.232,242.458 42.077,242.575 41.888 C 242.692 41.700,242.537 41.545,242.232 41.545 C 241.926 41.545,241.753 41.421,241.846 41.270 C 241.939 41.119,241.516 40.962,240.904 40.921 C 239.824 40.848,239.797 40.880,239.934 42.054 M152.629 41.871 C 152.401 42.239,153.494 42.918,154.312 42.918 C 154.621 42.918,154.850 42.626,154.850 42.232 C 154.850 41.497,153.041 41.203,152.629 41.871 M145.117 44.467 C 144.805 44.696,144.549 45.059,144.549 45.274 C 144.549 45.491,144.024 45.665,143.372 45.665 C 141.118 45.665,140.543 47.740,142.651 48.269 C 143.817 48.561,144.296 48.149,144.127 46.998 C 143.964 45.888,144.367 45.737,145.281 46.564 C 146.407 47.583,147.700 46.924,147.574 45.396 C 147.458 44.003,146.333 43.578,145.117 44.467 M139.171 47.277 C 137.753 47.554,137.808 49.288,139.246 49.649 C 140.352 49.927,140.674 49.642,140.837 48.244 C 140.985 46.981,140.910 46.938,139.171 47.277 M254.008 48.155 C 254.285 50.144,255.110 50.593,256.645 49.587 C 258.122 48.619,256.846 47.058,254.566 47.043 C 253.958 47.039,253.876 47.203,254.008 48.155 M135.386 49.624 C 134.652 50.317,134.650 50.343,135.296 50.746 C 136.421 51.449,136.911 51.237,137.058 49.984 C 137.218 48.607,136.603 48.474,135.386 49.624 M257.725 49.030 C 257.630 49.184,257.608 49.610,257.677 49.977 C 257.745 50.344,257.813 50.837,257.828 51.073 C 257.866 51.697,259.037 51.598,259.865 50.901 C 260.486 50.379,260.518 50.220,260.111 49.683 C 259.604 49.014,258.005 48.576,257.725 49.030 M261.454 51.175 C 261.112 52.252,261.838 52.923,262.847 52.463 L 263.667 52.089 262.907 51.287 C 261.969 50.297,261.738 50.280,261.454 51.175 M126.959 52.876 C 126.723 53.253,126.205 53.562,125.808 53.562 C 125.410 53.562,124.636 53.953,124.088 54.430 L 123.090 55.298 123.948 55.975 C 125.288 57.032,126.159 56.735,126.288 55.178 L 126.395 53.876 127.519 54.571 C 128.888 55.417,129.634 55.014,129.861 53.305 C 130.046 51.915,127.769 51.578,126.959 52.876 M120.797 55.660 C 120.594 55.786,120.548 56.085,120.696 56.324 C 120.871 56.607,120.826 56.673,120.568 56.513 C 119.762 56.015,120.202 57.000,121.027 57.541 C 122.234 58.331,122.918 57.953,122.918 56.495 C 122.918 55.276,122.002 54.916,120.797 55.660 M272.361 55.515 C 271.402 55.883,272.078 58.369,273.137 58.369 C 274.293 58.369,275.479 55.726,274.381 55.597 C 274.261 55.583,273.854 55.521,273.476 55.461 C 273.099 55.400,272.597 55.424,272.361 55.515 M117.795 57.617 C 117.777 58.156,117.631 58.327,117.339 58.152 C 117.047 57.977,117.061 58.080,117.381 58.475 C 118.022 59.264,119.022 59.208,119.241 58.369 C 119.372 57.868,119.252 57.682,118.795 57.682 C 118.450 57.682,118.091 57.489,117.996 57.253 C 117.900 57.017,117.810 57.181,117.795 57.617 M275.505 58.028 C 275.616 59.640,276.209 60.009,277.343 59.171 C 278.096 58.614,278.473 58.536,279.148 58.800 C 279.646 58.995,279.822 59.201,279.571 59.295 C 279.335 59.384,279.142 59.753,279.142 60.114 C 279.142 60.939,280.684 61.035,280.993 60.229 C 281.321 59.376,281.231 58.823,280.858 59.399 C 280.567 59.850,280.525 59.846,280.520 59.368 C 280.517 59.032,279.999 58.667,279.177 58.420 C 278.441 58.200,277.751 57.789,277.643 57.508 C 277.231 56.434,275.425 56.874,275.505 58.028 M109.330 60.676 C 108.332 61.674,109.436 63.334,110.954 63.118 C 111.695 63.012,112.603 60.545,111.963 60.375 C 111.022 60.127,109.732 60.274,109.330 60.676 M106.015 62.699 C 105.663 63.471,105.699 63.662,106.277 64.085 C 107.451 64.943,108.312 64.545,108.433 63.090 C 108.572 61.413,106.736 61.116,106.015 62.699 M102.767 64.011 C 102.543 64.267,102.453 64.570,102.567 64.684 C 102.682 64.799,102.453 64.893,102.060 64.893 C 101.064 64.893,100.227 65.253,100.436 65.591 C 100.532 65.746,100.300 65.972,99.919 66.093 C 99.090 66.356,99.024 66.801,99.771 67.088 C 100.981 67.552,101.371 67.331,101.214 66.266 C 101.039 65.071,101.701 64.899,103.299 65.726 C 104.502 66.348,105.214 65.945,104.990 64.770 C 104.897 64.284,104.992 63.816,105.200 63.730 C 105.409 63.644,105.039 63.567,104.378 63.559 C 103.717 63.552,102.992 63.755,102.767 64.011 M289.614 63.782 C 289.803 63.921,289.957 64.498,289.957 65.064 C 289.957 66.263,291.387 66.717,292.174 65.768 C 292.847 64.957,293.165 65.124,293.283 66.352 C 293.408 67.650,294.487 68.039,295.408 67.118 C 296.442 66.084,295.869 65.250,293.944 64.992 C 293.156 64.886,292.592 64.719,292.690 64.620 C 293.145 64.165,291.966 63.520,290.688 63.525 C 289.908 63.527,289.425 63.643,289.614 63.782 M296.927 67.670 C 297.115 68.954,297.538 69.206,298.574 68.652 C 299.579 68.114,299.632 67.636,298.712 67.396 C 298.335 67.297,298.026 67.112,298.026 66.986 C 298.026 66.859,297.745 66.734,297.402 66.709 C 296.901 66.671,296.808 66.859,296.927 67.670 M91.355 68.967 C 91.152 69.346,90.469 69.695,89.684 69.820 C 88.735 69.972,88.248 70.267,87.981 70.854 C 87.685 71.504,87.392 71.651,86.583 71.557 C 85.800 71.465,85.430 71.634,85.011 72.273 C 84.303 73.354,84.294 73.323,85.473 73.811 C 86.688 74.314,87.210 74.059,87.210 72.961 C 87.210 71.842,87.714 71.624,88.743 72.298 C 89.901 73.057,90.644 72.717,90.644 71.427 C 90.644 70.261,90.985 70.144,92.153 70.909 C 92.981 71.452,94.045 71.289,94.122 70.607 C 94.371 68.392,94.339 68.326,92.989 68.326 C 92.080 68.326,91.596 68.516,91.355 68.967 M307.868 71.645 C 307.390 72.123,307.637 74.184,308.198 74.399 C 308.861 74.654,310.515 73.732,310.661 73.027 C 310.881 71.967,308.650 70.864,307.868 71.645 M82.184 73.763 C 82.020 74.362,81.891 74.449,81.674 74.106 C 81.445 73.745,81.383 73.764,81.379 74.194 C 81.369 75.194,83.062 75.670,83.404 74.762 C 83.593 74.259,83.559 73.944,83.306 73.854 C 83.093 73.779,82.803 73.547,82.661 73.339 C 82.501 73.105,82.320 73.266,82.184 73.763 M311.213 73.994 C 310.769 75.765,312.064 76.564,313.252 75.252 C 313.981 74.446,313.971 73.959,313.219 73.633 C 311.878 73.053,311.429 73.134,311.213 73.994 M314.714 75.061 C 314.923 75.147,315.024 75.580,314.939 76.023 C 314.748 77.021,315.299 77.405,316.216 76.914 C 317.050 76.467,317.198 75.009,316.377 75.324 C 316.071 75.441,315.934 75.384,316.054 75.189 C 316.174 74.994,315.853 74.861,315.299 74.877 C 314.769 74.892,314.505 74.974,314.714 75.061 M74.077 76.763 C 72.977 77.360,72.883 77.951,73.761 78.745 C 74.960 79.830,76.753 79.152,76.514 77.703 C 76.458 77.361,76.533 76.888,76.681 76.652 C 77.066 76.039,75.272 76.115,74.077 76.763 M70.600 78.349 C 69.939 78.719,69.867 79.780,70.472 80.248 C 71.160 80.780,71.964 80.985,72.373 80.732 C 72.823 80.454,73.260 78.303,72.880 78.239 C 71.745 78.050,71.077 78.082,70.600 78.349 M67.240 80.301 C 66.618 81.028,66.773 81.429,67.904 82.025 C 68.929 82.565,69.251 82.318,69.421 80.862 C 69.586 79.447,68.263 79.107,67.240 80.301 M325.559 80.944 C 325.683 82.449,326.799 82.882,327.925 81.863 C 329.040 80.854,328.255 79.657,326.478 79.657 C 325.502 79.657,325.457 79.720,325.559 80.944 M63.884 81.862 C 63.531 82.288,63.553 82.486,64.001 82.934 C 64.793 83.726,65.751 83.433,65.751 82.399 C 65.751 81.384,64.564 81.043,63.884 81.862 M328.852 82.392 C 329.044 83.701,329.576 84.121,330.566 83.746 C 332.292 83.091,331.740 81.373,329.803 81.373 C 328.778 81.373,328.713 81.444,328.852 82.392 M332.319 83.057 C 332.579 83.222,332.694 83.515,332.575 83.707 C 332.185 84.339,332.760 85.150,333.599 85.150 C 334.481 85.150,334.524 85.057,334.199 83.843 C 334.069 83.359,333.805 83.121,333.517 83.232 C 333.259 83.331,333.047 83.262,333.047 83.079 C 333.047 82.896,332.777 82.749,332.446 82.752 C 331.971 82.756,331.944 82.820,332.319 83.057 M55.849 84.972 C 55.569 85.252,55.288 85.634,55.224 85.820 C 55.160 86.006,54.590 86.197,53.958 86.245 C 53.326 86.293,52.631 86.581,52.413 86.887 C 52.083 87.350,50.241 88.077,49.840 87.902 C 49.693 87.838,48.781 89.027,48.766 89.301 C 48.752 89.573,50.379 90.300,51.003 90.300 C 51.326 90.300,51.502 89.945,51.502 89.291 C 51.502 88.032,52.045 87.661,52.838 88.378 C 54.115 89.534,55.995 88.304,55.119 86.886 C 54.772 86.324,55.828 86.459,56.309 87.039 C 57.170 88.076,58.712 87.415,58.712 86.009 C 58.712 84.561,56.912 83.910,55.849 84.972 M342.918 87.922 C 343.155 88.173,343.348 88.815,343.348 89.350 C 343.348 90.573,344.174 90.927,345.356 90.209 C 347.039 89.188,346.395 87.957,344.022 87.659 C 342.757 87.501,342.564 87.547,342.918 87.922 M46.101 90.045 C 45.499 90.710,45.503 90.720,46.617 91.300 C 47.598 91.811,48.164 91.484,47.874 90.572 C 47.743 90.159,47.829 89.762,48.085 89.604 C 48.349 89.440,48.154 89.357,47.582 89.389 C 47.068 89.418,46.402 89.713,46.101 90.045 M346.913 89.491 C 346.302 89.729,346.878 91.822,347.593 91.959 C 348.454 92.125,349.491 91.092,349.279 90.281 C 349.183 89.914,349.007 89.602,348.887 89.588 C 348.767 89.574,348.361 89.513,347.983 89.452 C 347.605 89.391,347.124 89.408,346.913 89.491 M350.352 92.127 C 350.392 93.375,351.082 93.675,352.110 92.892 C 352.650 92.480,352.696 92.312,352.331 92.071 C 352.079 91.905,351.925 91.649,351.988 91.502 C 352.051 91.355,351.701 91.192,351.210 91.140 C 350.412 91.055,350.321 91.159,350.352 92.127 M37.748 93.428 C 37.575 93.752,36.817 94.120,36.056 94.248 C 35.298 94.376,34.659 94.622,34.635 94.794 C 34.468 96.017,34.608 96.348,35.468 96.761 C 36.734 97.367,37.545 96.771,37.342 95.384 C 37.203 94.440,37.218 94.431,38.019 94.956 C 39.479 95.913,40.669 95.493,40.794 93.976 L 40.902 92.673 39.482 92.757 C 38.557 92.812,37.953 93.046,37.748 93.428 M32.275 96.231 C 32.275 96.390,32.136 96.436,31.967 96.331 C 31.574 96.088,31.209 97.018,31.451 97.649 C 31.651 98.169,32.904 98.617,33.364 98.332 C 34.019 97.927,33.674 95.835,32.961 95.888 C 32.584 95.917,32.275 96.071,32.275 96.231 M361.428 96.026 C 360.966 96.487,361.201 98.467,361.742 98.674 C 362.938 99.134,364.714 97.443,363.895 96.624 C 363.326 96.054,361.775 95.679,361.428 96.026 M25.699 99.135 C 24.756 99.351,24.217 101.102,24.721 102.318 C 25.231 103.548,26.178 103.663,26.933 102.585 C 28.001 101.060,27.190 98.794,25.699 99.135 M26.320 134.748 C 26.071 135.397,26.321 136.673,26.790 137.142 C 27.623 137.976,55.022 137.813,55.708 136.971 C 56.690 135.765,56.492 134.715,55.236 134.464 C 52.748 133.966,26.521 134.224,26.320 134.748 M119.939 134.488 C 118.626 134.744,118.319 135.457,119.015 136.636 L 119.633 137.682 123.164 137.682 L 126.695 137.682 126.700 144.807 C 126.705 152.228,126.828 153.476,127.554 153.476 C 127.794 153.476,128.231 153.845,128.526 154.295 C 129.083 155.146,135.448 155.647,136.550 154.928 C 137.837 154.087,136.198 152.964,133.553 152.874 C 132.142 152.827,130.639 152.708,130.215 152.610 L 129.442 152.433 129.442 144.565 C 129.442 135.897,129.320 135.200,127.699 134.634 C 126.653 134.270,121.554 134.174,119.939 134.488 M191.845 134.486 C 191.058 134.691,191.092 135.927,191.912 136.910 C 193.521 138.839,200.858 137.704,200.858 135.526 C 200.858 134.419,194.785 133.717,191.845 134.486 M264.172 134.717 C 262.582 135.442,262.505 135.837,262.318 144.206 L 262.146 151.931 259.258 152.171 C 256.198 152.424,255.640 152.716,255.262 154.260 L 255.027 155.216 259.102 155.119 C 262.952 155.027,263.195 154.979,263.515 154.249 C 263.701 153.824,263.983 153.476,264.140 153.476 C 264.466 153.476,265.254 152.747,265.346 152.361 C 265.380 152.219,265.408 148.858,265.408 144.893 L 265.408 137.682 268.787 137.682 L 272.167 137.682 272.810 136.487 C 273.309 135.561,273.362 135.199,273.045 134.882 C 272.407 134.244,265.491 134.116,264.172 134.717 M336.481 134.555 C 335.405 134.852,335.246 135.886,336.118 136.920 L 336.779 137.703 352.407 137.607 C 362.958 137.542,368.154 137.391,368.403 137.142 C 368.961 136.584,369.130 135.216,368.705 134.704 C 368.295 134.210,338.231 134.071,336.481 134.555 M115.811 152.103 C 111.671 152.288,111.438 152.385,111.082 154.077 L 110.847 155.193 114.815 155.193 C 119.153 155.193,120.049 154.747,119.767 152.726 C 119.657 151.937,119.628 151.933,115.811 152.103 M336.480 152.017 C 336.480 152.159,334.786 152.275,332.715 152.275 C 328.628 152.275,328.182 152.453,327.761 154.249 L 327.541 155.193 331.581 155.188 C 333.804 155.185,335.827 155.053,336.078 154.894 C 336.537 154.603,337.100 151.760,336.698 151.760 C 336.578 151.760,336.480 151.876,336.480 152.017 M184.206 152.677 C 183.639 152.978,183.150 153.242,183.118 153.265 C 183.086 153.288,182.954 153.731,182.823 154.250 L 182.587 155.193 186.380 155.193 C 190.157 155.193,190.600 155.064,190.775 153.906 C 191.012 152.344,186.445 151.489,184.206 152.677 M272.591 152.790 C 272.577 152.884,272.517 153.211,272.457 153.516 C 272.217 154.745,272.852 155.018,276.225 155.141 C 280.478 155.295,281.160 155.130,280.943 153.993 C 280.842 153.466,280.490 153.062,280.045 152.963 C 279.004 152.732,272.622 152.584,272.591 152.790 M55.541 153.037 C 55.372 153.372,55.438 153.831,55.760 154.554 C 56.042 155.190,63.063 155.438,64.378 154.858 C 64.934 154.612,64.955 154.550,64.487 154.531 C 64.160 154.517,63.863 154.172,63.801 153.734 C 63.688 152.943,55.918 152.287,55.541 153.037 M201.533 153.498 C 200.811 154.849,201.610 155.194,205.450 155.188 C 207.362 155.185,209.159 155.033,209.442 154.850 C 209.785 154.628,209.814 154.515,209.528 154.512 C 209.292 154.509,209.099 154.215,209.099 153.860 C 209.099 152.544,202.220 152.215,201.533 153.498 M321.099 154.232 C 320.291 155.040,320.526 257.057,321.337 257.491 C 321.836 257.758,322.195 257.675,322.882 257.135 L 323.777 256.431 323.777 205.694 C 323.777 156.976,323.752 154.934,323.149 154.388 C 322.407 153.717,321.670 153.661,321.099 154.232 M68.751 154.562 C 68.028 155.285,68.141 256.247,68.866 256.971 C 69.474 257.579,69.687 257.617,70.302 257.227 C 71.162 256.681,70.731 154.360,69.867 154.236 C 69.487 154.181,68.985 154.328,68.751 154.562 M104.193 154.592 C 104.103 154.828,104.069 177.966,104.118 206.009 L 104.206 256.996 105.236 256.996 L 106.266 256.996 106.353 206.045 C 106.417 168.674,106.337 154.970,106.054 154.629 C 105.569 154.044,104.410 154.022,104.193 154.592 M55.777 256.719 C 53.848 258.647,61.243 260.109,63.536 258.253 L 64.316 257.621 63.561 256.866 C 62.623 255.927,56.680 255.815,55.777 256.719 M111.735 256.391 C 109.609 257.899,111.263 259.030,115.883 259.227 L 119.892 259.399 119.704 258.247 C 119.601 257.613,119.248 256.898,118.920 256.658 C 118.260 256.176,112.348 255.956,111.735 256.391 M128.711 257.130 C 128.323 257.623,127.938 257.982,127.854 257.928 C 126.937 257.340,126.695 259.114,126.695 266.413 L 126.695 273.991 123.330 273.991 C 119.854 273.991,119.142 274.238,119.142 275.442 C 119.142 277.051,126.895 277.296,128.551 275.740 L 129.430 274.913 129.522 266.985 L 129.614 259.056 132.806 258.879 C 135.986 258.702,136.633 258.427,136.647 257.245 C 136.665 255.786,129.846 255.687,128.711 257.130 M183.777 256.556 C 181.637 257.588,183.779 259.227,187.266 259.227 C 190.178 259.227,191.677 257.993,190.362 256.677 C 189.721 256.037,185.033 255.951,183.777 256.556 M201.928 256.474 C 199.637 258.041,204.270 259.629,208.069 258.578 C 209.470 258.191,209.388 256.973,207.928 256.491 C 206.774 256.110,202.477 256.098,201.928 256.474 M256.052 256.497 C 254.032 257.710,255.528 258.993,259.227 259.220 L 262.146 259.399 262.238 266.981 L 262.330 274.562 263.377 275.564 C 264.509 276.648,271.673 277.135,272.614 276.193 C 273.935 274.871,272.431 273.991,268.850 273.991 L 265.408 273.991 265.403 266.867 C 265.398 258.867,265.338 258.432,264.177 257.903 C 263.721 257.695,263.348 257.307,263.348 257.040 C 263.348 256.173,257.336 255.726,256.052 256.497 M272.943 256.785 C 271.283 258.168,272.365 258.884,276.114 258.884 C 279.765 258.884,280.858 258.568,280.858 257.511 C 280.858 256.063,274.509 255.481,272.943 256.785 M328.324 256.534 C 327.773 257.086,327.774 258.420,328.326 258.778 C 329.353 259.442,336.826 259.440,336.825 258.776 C 336.824 258.066,336.197 256.759,335.704 256.437 C 335.045 256.006,328.769 256.089,328.324 256.534 M26.649 274.635 C 26.343 274.973,26.196 275.352,26.323 275.479 C 26.449 275.605,26.303 275.708,25.999 275.708 C 23.908 275.708,23.758 282.817,25.843 283.116 C 26.659 283.233,27.592 281.395,27.345 280.160 C 27.241 279.639,27.246 278.656,27.357 277.976 L 27.558 276.738 40.689 276.738 C 55.273 276.738,55.966 276.684,55.966 275.536 C 55.966 273.998,55.758 273.976,41.112 273.999 C 28.204 274.019,27.165 274.065,26.649 274.635 M192.189 274.362 C 191.440 274.799,191.401 276.250,192.131 276.530 C 194.097 277.284,200.515 276.668,200.515 275.725 C 200.515 274.163,194.283 273.143,192.189 274.362 M336.368 274.613 C 334.569 276.601,335.626 276.738,352.741 276.738 L 367.926 276.738 368.329 278.242 C 368.637 279.397,368.636 280.015,368.323 280.903 C 368.043 281.696,367.858 286.813,367.734 297.167 L 367.554 312.275 344.721 312.506 C 332.163 312.634,255.412 312.648,174.163 312.538 C 47.360 312.367,26.430 312.407,26.385 312.822 C 26.357 313.087,26.308 313.536,26.277 313.820 C 26.246 314.103,26.352 314.605,26.512 314.935 C 26.790 315.505,35.350 315.535,197.551 315.535 L 368.297 315.535 368.740 314.706 C 368.984 314.251,369.450 313.808,369.776 313.723 C 370.742 313.470,370.815 312.119,370.815 294.572 C 370.815 277.424,370.733 276.290,369.457 275.884 C 369.066 275.760,368.826 275.528,368.925 275.368 C 369.873 273.833,337.747 273.089,336.368 274.613 M359.775 316.183 C 360.127 316.406,360.209 317.331,360.118 320.066 L 360.000 323.657 360.977 323.598 C 362.929 323.482,363.400 317.354,361.531 316.388 C 360.460 315.834,358.946 315.657,359.775 316.183 M392.580 326.326 C 391.525 329.078,392.986 334.169,394.438 332.796 C 394.997 332.268,394.944 326.851,394.376 326.348 C 393.815 325.852,392.767 325.839,392.580 326.326 " stroke="none" fill="#c794a4" fill-rule="evenodd"></path><path id="path2" d="M56.682 136.395 L 55.286 137.854 55.282 145.064 L 55.278 152.275 59.069 152.103 C 61.926 151.974,62.939 151.805,63.184 151.416 C 63.664 150.655,63.611 137.125,63.125 136.201 C 62.084 134.224,58.659 134.327,56.682 136.395 M130.508 135.408 C 130.233 135.739,130.143 138.274,130.208 143.906 L 130.300 151.931 132.212 152.032 C 133.264 152.088,134.538 151.976,135.045 151.783 L 135.966 151.433 135.960 143.957 C 135.958 139.845,135.838 136.297,135.696 136.073 C 135.018 135.007,131.242 134.523,130.508 135.408 M202.793 135.571 C 202.285 136.132,202.229 137.115,202.311 144.069 L 202.403 151.931 204.315 152.032 C 205.367 152.088,206.641 151.976,207.148 151.783 L 208.069 151.433 208.069 144.027 C 208.069 136.622,208.069 136.621,207.226 135.778 C 206.154 134.706,203.681 134.590,202.793 135.571 M273.674 136.364 L 272.275 137.792 272.274 145.033 L 272.274 152.275 276.137 152.057 C 278.262 151.937,280.039 151.821,280.086 151.800 C 280.533 151.592,280.099 135.942,279.632 135.475 C 278.433 134.276,275.257 134.749,273.674 136.364 M71.889 153.181 C 71.505 153.777,71.309 255.799,71.690 257.274 C 72.089 258.822,75.345 259.107,76.737 257.715 L 77.597 256.855 77.597 205.719 C 77.597 147.102,77.977 153.132,74.258 152.863 C 72.759 152.755,72.108 152.842,71.889 153.181 M143.948 153.476 C 141.977 155.730,142.157 150.734,142.060 205.922 L 141.972 256.309 141.887 205.751 C 141.831 172.331,141.686 155.193,141.459 155.193 C 141.232 155.193,141.116 172.249,141.116 205.674 L 141.116 256.155 142.070 256.345 C 142.639 256.459,143.255 256.940,143.599 257.538 C 144.382 258.903,148.260 259.070,149.165 257.778 C 149.858 256.789,149.994 155.365,149.305 154.055 C 148.512 152.548,145.084 152.178,143.948 153.476 M215.334 153.906 L 213.941 155.021 213.923 205.563 L 213.906 256.104 215.160 257.323 C 216.634 258.754,220.524 259.153,221.503 257.973 C 222.378 256.919,222.186 153.919,221.308 153.277 C 219.997 152.318,216.909 152.643,215.334 153.906 M288.796 153.255 C 288.513 153.597,288.433 167.659,288.497 206.045 L 288.584 258.369 290.602 258.473 C 292.302 258.561,292.749 258.457,293.435 257.813 L 294.249 257.048 294.249 205.761 L 294.249 154.475 293.406 153.632 C 292.434 152.660,289.490 152.419,288.796 153.255 M55.279 266.234 C 55.279 273.719,55.279 273.721,56.137 274.741 C 58.195 277.187,57.917 277.238,42.026 277.354 C 28.748 277.450,28.183 277.480,27.983 278.111 C 27.654 279.147,28.173 281.187,28.859 281.554 C 30.087 282.212,366.201 281.991,366.860 281.332 C 367.250 280.941,367.385 280.301,367.313 279.186 L 367.210 277.597 351.572 277.425 C 337.435 277.270,335.846 277.196,335.018 276.652 C 334.165 276.093,332.265 276.052,307.671 276.052 L 281.241 276.052 280.706 275.288 C 280.263 274.656,280.172 273.278,280.172 267.240 C 280.172 263.233,280.045 259.877,279.891 259.781 C 279.736 259.686,278.075 259.580,276.200 259.547 C 274.115 259.509,272.692 259.335,272.537 259.099 C 272.399 258.886,272.283 262.150,272.280 266.352 C 272.275 273.613,272.310 274.026,272.982 274.699 C 273.987 275.704,273.733 276.851,272.446 277.125 C 270.093 277.625,264.925 277.414,263.004 276.738 C 261.203 276.105,259.932 276.073,235.497 276.063 C 210.107 276.052,209.870 276.045,208.973 275.340 L 208.069 274.628 208.069 267.512 C 208.069 259.217,208.217 259.571,204.738 259.571 L 202.232 259.571 202.206 266.867 C 202.168 277.499,202.166 277.501,195.486 277.349 C 192.085 277.271,191.192 277.142,190.652 276.652 C 190.032 276.091,188.248 276.052,163.545 276.052 C 138.364 276.052,137.075 276.022,136.534 275.424 C 136.042 274.880,135.966 273.799,135.966 267.392 C 135.966 258.920,136.252 259.571,132.527 259.571 L 130.174 259.571 130.066 267.631 C 129.927 277.916,130.368 277.253,123.665 277.253 C 119.761 277.253,118.781 277.150,118.032 276.659 C 117.195 276.110,115.087 276.057,90.653 275.972 C 67.563 275.892,64.139 275.814,63.855 275.365 C 63.676 275.082,63.527 271.597,63.525 267.622 C 63.518 259.038,63.791 259.571,59.399 259.571 C 57.293 259.571,55.954 259.422,55.691 259.159 C 55.371 258.838,55.279 260.411,55.279 266.234 M135.978 288.733 C 135.492 289.640,135.529 292.301,136.034 292.807 C 136.741 293.514,261.916 293.393,262.928 292.684 C 263.946 291.971,263.989 289.740,263.004 288.755 C 261.940 287.691,136.547 287.668,135.978 288.733 M168.608 298.168 C 168.370 298.455,168.247 299.476,168.308 300.658 L 168.412 302.661 231.523 302.748 C 274.636 302.807,294.845 302.722,295.300 302.478 C 296.317 301.934,296.249 298.950,295.203 298.217 C 294.097 297.443,169.250 297.395,168.608 298.168 M201.083 307.924 C 200.319 308.769,200.301 311.604,201.058 311.895 C 201.898 312.217,327.322 312.130,327.832 311.807 C 328.676 311.272,328.214 308.244,327.210 307.739 C 325.610 306.933,201.816 307.115,201.083 307.924 M232.551 316.488 C 231.522 317.298,231.455 323.874,232.482 323.240 C 232.651 323.135,232.790 323.209,232.790 323.404 C 232.790 323.647,252.839 323.763,296.355 323.772 C 351.631 323.784,359.866 323.721,359.509 323.291 C 359.246 322.974,359.123 321.696,359.167 319.724 C 359.204 318.034,359.127 316.477,358.996 316.265 C 358.542 315.531,233.488 315.751,232.551 316.488 M264.553 326.737 C 263.795 327.895,263.924 332.550,264.729 333.059 C 265.038 333.255,289.865 333.382,328.476 333.385 L 391.715 333.391 391.823 329.755 C 391.883 327.756,391.867 326.056,391.788 325.979 C 391.710 325.901,363.182 325.837,328.394 325.837 L 265.143 325.837 264.553 326.737 " stroke="none" fill="#6c3444" fill-rule="evenodd"></path></g></svg>